<svg width="724" height="361" viewBox="0 0 724 361" fill="none" xmlns="http://www.w3.org/2000/svg">
<path d="M592.37 263.469C618.764 263.469 640.161 242.072 640.161 215.678C640.161 189.284 618.764 167.887 592.37 167.887C565.976 167.887 544.579 189.284 544.579 215.678C544.579 242.072 565.976 263.469 592.37 263.469Z" fill="white"/>
<path d="M592.37 238.146C604.779 238.146 614.838 228.087 614.838 215.678C614.838 203.269 604.779 193.21 592.37 193.21C579.961 193.21 569.902 203.269 569.902 215.678C569.902 228.087 579.961 238.146 592.37 238.146Z" fill="#0F3969"/>
<path d="M484.813 11.8862V240.697H521.746C521.746 240.697 532.04 241.97 531.934 231.039C531.934 231.039 520.028 161.346 589.068 153.542C589.068 153.542 655.779 145.68 654.206 228.51C654.206 228.51 652.001 240.965 664.412 239.392H708.387C708.387 239.392 724.146 240.892 723.996 218.98V128.202C723.996 128.202 724.446 116.771 715.741 115.12L697.669 112.997C697.669 112.997 692.928 106.565 686.324 106.415L621.187 100.861L587.545 42.0264C587.545 42.0264 583.618 36.72 578.948 36.1894L563.348 33.324L546.261 21.3316C546.261 21.3316 538.726 13.5843 518.35 13.2659L484.813 11.8862Z" fill="white"/>
<path d="M473.405 240.166V73.4402C473.405 73.4402 475.474 3.82059 403.732 0H0.0233305C0.0233305 0 -2.94823 60.2804 58.1812 67.497H365.526C365.526 67.497 382.507 67.0725 384.629 85.751H67.5204C67.5204 85.751 68.7939 147.305 125.254 154.097H388.45C388.45 154.097 404.581 151.125 406.704 172.775H137.989C137.989 172.775 137.564 228.811 195.298 239.848L473.405 240.166Z" fill="white"/>
<path d="M500.066 44.2788V100.862H603.026L574.823 52.0123C574.823 52.0123 569.707 43.8286 563.253 44.4289L500.066 44.2788Z" fill="#0F3969"/>
<path d="M54.126 340.508C51.6081 340.508 49.3123 340.021 47.2388 339.048C45.1652 338.075 43.5148 336.636 42.2876 334.731C41.0815 332.806 40.4785 330.447 40.4785 327.654V313.657H51.5234V326.987C51.5234 327.961 51.7139 328.743 52.0947 329.336C52.4967 329.928 53.1315 330.225 53.999 330.225C55.6706 330.225 56.5063 329.198 56.5063 327.146V284.141H67.7734V326.035C67.7734 328.997 67.1916 331.568 66.0278 333.748C64.8641 335.906 63.256 337.577 61.2036 338.762C59.1512 339.926 56.792 340.508 54.126 340.508ZM80.9131 340.667C78.6068 340.667 76.6919 340.095 75.1685 338.953C73.6662 337.789 72.5448 336.234 71.8042 334.287C71.0848 332.34 70.7251 330.161 70.7251 327.749C70.7251 323.39 71.3493 319.941 72.5977 317.402C73.8672 314.842 75.7609 312.631 78.2788 310.769C77.5594 309.351 76.8506 307.669 76.1523 305.723C75.4541 303.755 75.105 301.829 75.105 299.946C75.105 296.73 76.1523 294.233 78.2471 292.456C80.363 290.679 82.9972 289.79 86.1499 289.79C89.2603 289.79 91.8628 290.636 93.9575 292.329C96.0522 294.022 97.0996 296.444 97.0996 299.597C97.0996 304.062 94.6134 308.272 89.6411 312.229L91.6406 316.958C92.889 313.742 94.7087 311.256 97.0996 309.5L101.511 316.387C99.0145 318.376 96.9303 321.676 95.2588 326.289L100.94 340H90.1489L88.9746 336.921C88.1494 337.958 87.0386 338.847 85.6421 339.587C84.2456 340.307 82.6693 340.667 80.9131 340.667ZM86.7529 304.771L87.2925 304.199C87.6945 303.776 88.0754 303.12 88.4351 302.231C88.7948 301.322 88.9746 300.444 88.9746 299.597C88.9746 298.264 88.3504 297.598 87.1021 297.598C86.5731 297.598 86.1499 297.799 85.8325 298.201C85.5363 298.582 85.3882 299.047 85.3882 299.597C85.3882 300.761 85.8431 302.485 86.7529 304.771ZM82.6904 332.542C83.6003 332.542 84.3197 332.203 84.8486 331.526C85.3776 330.828 85.7267 330.119 85.896 329.399L82.0239 320.164C80.966 321.729 80.437 323.866 80.437 326.575V326.892C80.437 327.654 80.4688 328.479 80.5322 329.368C80.5957 330.235 80.7861 330.986 81.1035 331.621C81.4209 332.235 81.9499 332.542 82.6904 332.542ZM117.983 340.508C113.942 340.508 110.684 339.249 108.208 336.731C105.754 334.213 104.526 330.69 104.526 326.162V300.391C104.526 294.974 105.595 290.827 107.732 287.949C109.89 285.072 113.392 283.633 118.237 283.633C120.882 283.633 123.231 284.119 125.283 285.093C127.357 286.066 128.986 287.526 130.171 289.473C131.356 291.398 131.948 293.831 131.948 296.772V306.421H120.84V298.169C120.84 296.497 120.628 295.376 120.205 294.805C119.782 294.212 119.126 293.916 118.237 293.916C117.201 293.916 116.502 294.297 116.143 295.059C115.783 295.799 115.603 296.794 115.603 298.042V326.003C115.603 327.548 115.825 328.638 116.27 329.272C116.735 329.907 117.391 330.225 118.237 330.225C119.189 330.225 119.856 329.833 120.237 329.05C120.639 328.267 120.84 327.252 120.84 326.003V315.942H132.075V326.511C132.075 331.42 130.837 334.985 128.362 337.207C125.886 339.408 122.427 340.508 117.983 340.508Z" fill="white"/>
<path d="M166.89 297.344V340H159.8V297.344H166.89ZM177.759 297.344V303.32H149.048V297.344H177.759ZM187.603 314.424V340H180.776V308.301H187.28L187.603 314.424ZM195.249 308.096L195.22 314.834C194.829 314.736 194.409 314.678 193.96 314.658C193.53 314.619 193.101 314.6 192.671 314.6C191.733 314.6 190.923 314.766 190.239 315.098C189.556 315.43 188.979 315.908 188.511 316.533C188.042 317.158 187.671 317.91 187.397 318.789C187.144 319.668 186.987 320.664 186.929 321.777L185.464 321.836C185.464 319.844 185.62 317.998 185.933 316.299C186.245 314.58 186.714 313.086 187.339 311.816C187.983 310.527 188.784 309.521 189.741 308.799C190.698 308.076 191.812 307.715 193.081 307.715C193.433 307.715 193.833 307.754 194.282 307.832C194.731 307.91 195.054 307.998 195.249 308.096ZM213.647 333.555V317.764C213.647 316.67 213.491 315.791 213.179 315.127C212.886 314.463 212.446 313.984 211.86 313.691C211.294 313.379 210.581 313.223 209.722 313.223C208.823 313.223 208.062 313.408 207.437 313.779C206.831 314.15 206.372 314.658 206.06 315.303C205.747 315.928 205.591 316.65 205.591 317.471H198.765C198.765 316.201 199.019 314.98 199.526 313.809C200.054 312.637 200.806 311.592 201.782 310.674C202.759 309.756 203.94 309.033 205.327 308.506C206.714 307.979 208.257 307.715 209.956 307.715C211.987 307.715 213.794 308.057 215.376 308.74C216.958 309.404 218.198 310.488 219.097 311.992C220.015 313.477 220.474 315.43 220.474 317.852V332.646C220.474 334.111 220.562 335.42 220.737 336.572C220.933 337.705 221.196 338.691 221.528 339.531V340H214.585C214.272 339.238 214.038 338.262 213.882 337.07C213.726 335.879 213.647 334.707 213.647 333.555ZM214.556 320.693L214.585 325.117H211.304C210.327 325.117 209.448 325.254 208.667 325.527C207.886 325.781 207.222 326.152 206.675 326.641C206.147 327.109 205.737 327.686 205.444 328.369C205.171 329.053 205.034 329.805 205.034 330.625C205.034 331.621 205.171 332.432 205.444 333.057C205.737 333.682 206.157 334.15 206.704 334.463C207.271 334.756 207.954 334.902 208.755 334.902C209.849 334.902 210.796 334.668 211.597 334.199C212.417 333.711 213.042 333.125 213.472 332.441C213.921 331.758 214.097 331.133 213.999 330.566L215.552 333.408C215.396 334.15 215.103 334.932 214.673 335.752C214.263 336.572 213.726 337.354 213.062 338.096C212.397 338.838 211.597 339.443 210.659 339.912C209.722 340.361 208.638 340.586 207.407 340.586C205.63 340.586 204.048 340.215 202.661 339.473C201.274 338.73 200.181 337.666 199.38 336.279C198.599 334.873 198.208 333.193 198.208 331.24C198.208 329.658 198.472 328.223 198.999 326.934C199.526 325.645 200.308 324.541 201.343 323.623C202.378 322.686 203.677 321.963 205.239 321.455C206.821 320.947 208.667 320.693 210.776 320.693H214.556ZM234.214 315.068V340H227.388V308.301H233.804L234.214 315.068ZM232.983 323.008H230.815C230.796 320.723 231.04 318.643 231.548 316.768C232.056 314.893 232.778 313.281 233.716 311.934C234.653 310.586 235.776 309.551 237.085 308.828C238.413 308.086 239.888 307.715 241.509 307.715C242.778 307.715 243.931 307.93 244.966 308.359C246.021 308.77 246.919 309.443 247.661 310.381C248.403 311.318 248.97 312.539 249.36 314.043C249.771 315.547 249.976 317.383 249.976 319.551V340H243.149V319.492C243.149 318.008 242.983 316.836 242.651 315.977C242.339 315.098 241.87 314.473 241.245 314.102C240.62 313.711 239.829 313.516 238.872 313.516C237.993 313.516 237.183 313.77 236.44 314.277C235.718 314.766 235.093 315.449 234.565 316.328C234.058 317.188 233.667 318.193 233.394 319.346C233.12 320.479 232.983 321.699 232.983 323.008ZM271.509 331.65C271.509 330.986 271.313 330.4 270.923 329.893C270.552 329.365 269.946 328.848 269.106 328.34C268.267 327.832 267.144 327.285 265.737 326.699C264.272 326.094 262.974 325.488 261.841 324.883C260.708 324.277 259.751 323.613 258.97 322.891C258.188 322.148 257.593 321.299 257.183 320.342C256.772 319.385 256.567 318.271 256.567 317.002C256.567 315.693 256.812 314.482 257.3 313.369C257.788 312.256 258.491 311.279 259.409 310.439C260.327 309.58 261.431 308.916 262.72 308.447C264.009 307.959 265.464 307.715 267.085 307.715C269.37 307.715 271.323 308.135 272.944 308.975C274.585 309.795 275.835 310.947 276.694 312.432C277.573 313.896 278.013 315.586 278.013 317.5H271.187C271.187 316.699 271.04 315.977 270.747 315.332C270.454 314.668 270.005 314.141 269.399 313.75C268.794 313.34 268.022 313.135 267.085 313.135C266.226 313.135 265.503 313.301 264.917 313.633C264.351 313.945 263.921 314.375 263.628 314.922C263.354 315.449 263.218 316.045 263.218 316.709C263.218 317.197 263.306 317.627 263.481 317.998C263.657 318.369 263.95 318.73 264.36 319.082C264.771 319.414 265.317 319.756 266.001 320.107C266.704 320.459 267.593 320.859 268.667 321.309C270.796 322.129 272.563 322.979 273.97 323.857C275.376 324.736 276.431 325.762 277.134 326.934C277.837 328.105 278.188 329.561 278.188 331.299C278.188 332.705 277.925 333.975 277.397 335.107C276.89 336.24 276.147 337.217 275.171 338.037C274.214 338.857 273.052 339.492 271.685 339.941C270.337 340.371 268.833 340.586 267.173 340.586C264.692 340.586 262.593 340.098 260.874 339.121C259.175 338.125 257.886 336.846 257.007 335.283C256.128 333.721 255.688 332.07 255.688 330.332H262.28C262.339 331.582 262.603 332.559 263.071 333.262C263.56 333.965 264.175 334.453 264.917 334.727C265.659 334.98 266.431 335.107 267.231 335.107C268.188 335.107 268.979 334.98 269.604 334.727C270.229 334.453 270.698 334.053 271.011 333.525C271.343 332.998 271.509 332.373 271.509 331.65ZM290.962 314.395V352.188H284.165V308.301H290.405L290.962 314.395ZM308.013 322.891V325.41C308.013 327.891 307.788 330.078 307.339 331.973C306.89 333.867 306.226 335.459 305.347 336.748C304.487 338.018 303.423 338.975 302.153 339.619C300.884 340.264 299.399 340.586 297.7 340.586C296.099 340.586 294.702 340.234 293.511 339.531C292.339 338.828 291.353 337.842 290.552 336.572C289.751 335.303 289.106 333.799 288.618 332.061C288.149 330.303 287.808 328.389 287.593 326.318V322.451C287.808 320.264 288.14 318.271 288.589 316.475C289.058 314.658 289.692 313.096 290.493 311.787C291.313 310.479 292.31 309.473 293.481 308.77C294.653 308.066 296.05 307.715 297.671 307.715C299.37 307.715 300.864 308.018 302.153 308.623C303.442 309.229 304.517 310.156 305.376 311.406C306.255 312.656 306.909 314.238 307.339 316.152C307.788 318.047 308.013 320.293 308.013 322.891ZM301.187 325.41V322.891C301.187 321.27 301.079 319.873 300.864 318.701C300.669 317.51 300.337 316.533 299.868 315.771C299.419 315.01 298.843 314.443 298.14 314.072C297.456 313.701 296.606 313.516 295.591 313.516C294.692 313.516 293.901 313.701 293.218 314.072C292.534 314.443 291.958 314.961 291.489 315.625C291.021 316.27 290.649 317.041 290.376 317.939C290.103 318.818 289.927 319.775 289.849 320.811V327.988C290.024 329.238 290.317 330.391 290.728 331.445C291.138 332.48 291.733 333.311 292.515 333.936C293.315 334.561 294.36 334.873 295.649 334.873C296.646 334.873 297.495 334.678 298.198 334.287C298.901 333.896 299.468 333.311 299.897 332.529C300.347 331.748 300.669 330.771 300.864 329.6C301.079 328.408 301.187 327.012 301.187 325.41ZM312.788 325.439V322.891C312.788 320.43 313.091 318.252 313.696 316.357C314.302 314.463 315.161 312.881 316.274 311.611C317.407 310.322 318.735 309.355 320.259 308.711C321.782 308.047 323.462 307.715 325.298 307.715C327.173 307.715 328.872 308.047 330.396 308.711C331.938 309.355 333.267 310.322 334.38 311.611C335.513 312.881 336.382 314.463 336.987 316.357C337.593 318.252 337.896 320.43 337.896 322.891V325.439C337.896 327.9 337.593 330.078 336.987 331.973C336.382 333.867 335.513 335.459 334.38 336.748C333.267 338.018 331.948 338.975 330.425 339.619C328.901 340.264 327.212 340.586 325.356 340.586C323.521 340.586 321.831 340.264 320.288 339.619C318.765 338.975 317.437 338.018 316.304 336.748C315.171 335.459 314.302 333.867 313.696 331.973C313.091 330.078 312.788 327.9 312.788 325.439ZM319.614 322.891V325.439C319.614 327.021 319.751 328.408 320.024 329.6C320.298 330.771 320.688 331.748 321.196 332.529C321.704 333.311 322.31 333.896 323.013 334.287C323.716 334.678 324.497 334.873 325.356 334.873C326.313 334.873 327.144 334.678 327.847 334.287C328.569 333.896 329.165 333.311 329.634 332.529C330.122 331.748 330.483 330.771 330.718 329.6C330.952 328.408 331.069 327.021 331.069 325.439V322.891C331.069 321.328 330.933 319.961 330.659 318.789C330.386 317.598 329.995 316.611 329.487 315.83C328.979 315.029 328.364 314.434 327.642 314.043C326.938 313.652 326.157 313.457 325.298 313.457C324.458 313.457 323.687 313.652 322.983 314.043C322.3 314.434 321.704 315.029 321.196 315.83C320.688 316.611 320.298 317.598 320.024 318.789C319.751 319.961 319.614 321.328 319.614 322.891ZM350.61 314.424V340H343.784V308.301H350.288L350.61 314.424ZM358.257 308.096L358.228 314.834C357.837 314.736 357.417 314.678 356.968 314.658C356.538 314.619 356.108 314.6 355.679 314.6C354.741 314.6 353.931 314.766 353.247 315.098C352.563 315.43 351.987 315.908 351.519 316.533C351.05 317.158 350.679 317.91 350.405 318.789C350.151 319.668 349.995 320.664 349.937 321.777L348.472 321.836C348.472 319.844 348.628 317.998 348.94 316.299C349.253 314.58 349.722 313.086 350.347 311.816C350.991 310.527 351.792 309.521 352.749 308.799C353.706 308.076 354.819 307.715 356.089 307.715C356.44 307.715 356.841 307.754 357.29 307.832C357.739 307.91 358.062 307.998 358.257 308.096ZM377.212 308.301V313.574H361.655V308.301H377.212ZM365.903 300.537H372.7V331.152C372.7 332.129 372.808 332.871 373.022 333.379C373.237 333.887 373.54 334.229 373.931 334.404C374.321 334.58 374.78 334.668 375.308 334.668C375.698 334.668 376.079 334.639 376.45 334.58C376.841 334.502 377.124 334.434 377.3 334.375V339.883C376.792 340.078 376.206 340.244 375.542 340.381C374.878 340.518 374.077 340.586 373.14 340.586C371.753 340.586 370.513 340.303 369.419 339.736C368.325 339.15 367.466 338.203 366.841 336.895C366.216 335.566 365.903 333.809 365.903 331.621V300.537ZM394.644 340.586C392.593 340.586 390.767 340.283 389.165 339.678C387.563 339.053 386.206 338.135 385.093 336.924C383.979 335.693 383.13 334.189 382.544 332.412C381.958 330.615 381.665 328.535 381.665 326.172V323.125C381.665 320.449 381.968 318.145 382.573 316.211C383.198 314.258 384.058 312.656 385.151 311.406C386.245 310.156 387.534 309.229 389.019 308.623C390.522 308.018 392.153 307.715 393.911 307.715C395.903 307.715 397.632 308.037 399.097 308.682C400.562 309.326 401.763 310.293 402.7 311.582C403.657 312.871 404.36 314.463 404.81 316.357C405.278 318.252 405.513 320.43 405.513 322.891V326.318H384.946V321.162H398.774V320.43C398.735 318.984 398.56 317.744 398.247 316.709C397.935 315.654 397.427 314.854 396.724 314.307C396.04 313.74 395.093 313.457 393.882 313.457C393.003 313.457 392.222 313.623 391.538 313.955C390.854 314.287 390.288 314.824 389.839 315.566C389.409 316.309 389.077 317.305 388.843 318.555C388.608 319.785 388.491 321.309 388.491 323.125V326.172C388.491 327.754 388.628 329.092 388.901 330.186C389.194 331.279 389.624 332.178 390.19 332.881C390.757 333.564 391.44 334.072 392.241 334.404C393.062 334.717 394.009 334.873 395.083 334.873C396.665 334.873 398.022 334.58 399.155 333.994C400.308 333.389 401.304 332.607 402.144 331.65L405.161 335.84C404.595 336.602 403.833 337.354 402.876 338.096C401.919 338.818 400.757 339.414 399.39 339.883C398.042 340.352 396.46 340.586 394.644 340.586ZM425.669 331.65C425.669 330.986 425.474 330.4 425.083 329.893C424.712 329.365 424.106 328.848 423.267 328.34C422.427 327.832 421.304 327.285 419.897 326.699C418.433 326.094 417.134 325.488 416.001 324.883C414.868 324.277 413.911 323.613 413.13 322.891C412.349 322.148 411.753 321.299 411.343 320.342C410.933 319.385 410.728 318.271 410.728 317.002C410.728 315.693 410.972 314.482 411.46 313.369C411.948 312.256 412.651 311.279 413.569 310.439C414.487 309.58 415.591 308.916 416.88 308.447C418.169 307.959 419.624 307.715 421.245 307.715C423.53 307.715 425.483 308.135 427.104 308.975C428.745 309.795 429.995 310.947 430.854 312.432C431.733 313.896 432.173 315.586 432.173 317.5H425.347C425.347 316.699 425.2 315.977 424.907 315.332C424.614 314.668 424.165 314.141 423.56 313.75C422.954 313.34 422.183 313.135 421.245 313.135C420.386 313.135 419.663 313.301 419.077 313.633C418.511 313.945 418.081 314.375 417.788 314.922C417.515 315.449 417.378 316.045 417.378 316.709C417.378 317.197 417.466 317.627 417.642 317.998C417.817 318.369 418.11 318.73 418.521 319.082C418.931 319.414 419.478 319.756 420.161 320.107C420.864 320.459 421.753 320.859 422.827 321.309C424.956 322.129 426.724 322.979 428.13 323.857C429.536 324.736 430.591 325.762 431.294 326.934C431.997 328.105 432.349 329.561 432.349 331.299C432.349 332.705 432.085 333.975 431.558 335.107C431.05 336.24 430.308 337.217 429.331 338.037C428.374 338.857 427.212 339.492 425.845 339.941C424.497 340.371 422.993 340.586 421.333 340.586C418.853 340.586 416.753 340.098 415.034 339.121C413.335 338.125 412.046 336.846 411.167 335.283C410.288 333.721 409.849 332.07 409.849 330.332H416.44C416.499 331.582 416.763 332.559 417.231 333.262C417.72 333.965 418.335 334.453 419.077 334.727C419.819 334.98 420.591 335.107 421.392 335.107C422.349 335.107 423.14 334.98 423.765 334.727C424.39 334.453 424.858 334.053 425.171 333.525C425.503 332.998 425.669 332.373 425.669 331.65ZM464.253 340.586C462.202 340.586 460.376 340.283 458.774 339.678C457.173 339.053 455.815 338.135 454.702 336.924C453.589 335.693 452.739 334.189 452.153 332.412C451.567 330.615 451.274 328.535 451.274 326.172V323.125C451.274 320.449 451.577 318.145 452.183 316.211C452.808 314.258 453.667 312.656 454.761 311.406C455.854 310.156 457.144 309.229 458.628 308.623C460.132 308.018 461.763 307.715 463.521 307.715C465.513 307.715 467.241 308.037 468.706 308.682C470.171 309.326 471.372 310.293 472.31 311.582C473.267 312.871 473.97 314.463 474.419 316.357C474.888 318.252 475.122 320.43 475.122 322.891V326.318H454.556V321.162H468.384V320.43C468.345 318.984 468.169 317.744 467.856 316.709C467.544 315.654 467.036 314.854 466.333 314.307C465.649 313.74 464.702 313.457 463.491 313.457C462.612 313.457 461.831 313.623 461.147 313.955C460.464 314.287 459.897 314.824 459.448 315.566C459.019 316.309 458.687 317.305 458.452 318.555C458.218 319.785 458.101 321.309 458.101 323.125V326.172C458.101 327.754 458.237 329.092 458.511 330.186C458.804 331.279 459.233 332.178 459.8 332.881C460.366 333.564 461.05 334.072 461.851 334.404C462.671 334.717 463.618 334.873 464.692 334.873C466.274 334.873 467.632 334.58 468.765 333.994C469.917 333.389 470.913 332.607 471.753 331.65L474.771 335.84C474.204 336.602 473.442 337.354 472.485 338.096C471.528 338.818 470.366 339.414 468.999 339.883C467.651 340.352 466.069 340.586 464.253 340.586ZM517.954 334.053V340H500.229V334.053H517.954ZM502.104 297.344V340H494.985V297.344H502.104ZM522.085 325.439V322.891C522.085 320.43 522.388 318.252 522.993 316.357C523.599 314.463 524.458 312.881 525.571 311.611C526.704 310.322 528.032 309.355 529.556 308.711C531.079 308.047 532.759 307.715 534.595 307.715C536.47 307.715 538.169 308.047 539.692 308.711C541.235 309.355 542.563 310.322 543.677 311.611C544.81 312.881 545.679 314.463 546.284 316.357C546.89 318.252 547.192 320.43 547.192 322.891V325.439C547.192 327.9 546.89 330.078 546.284 331.973C545.679 333.867 544.81 335.459 543.677 336.748C542.563 338.018 541.245 338.975 539.722 339.619C538.198 340.264 536.509 340.586 534.653 340.586C532.817 340.586 531.128 340.264 529.585 339.619C528.062 338.975 526.733 338.018 525.601 336.748C524.468 335.459 523.599 333.867 522.993 331.973C522.388 330.078 522.085 327.9 522.085 325.439ZM528.911 322.891V325.439C528.911 327.021 529.048 328.408 529.321 329.6C529.595 330.771 529.985 331.748 530.493 332.529C531.001 333.311 531.606 333.896 532.31 334.287C533.013 334.678 533.794 334.873 534.653 334.873C535.61 334.873 536.44 334.678 537.144 334.287C537.866 333.896 538.462 333.311 538.931 332.529C539.419 331.748 539.78 330.771 540.015 329.6C540.249 328.408 540.366 327.021 540.366 325.439V322.891C540.366 321.328 540.229 319.961 539.956 318.789C539.683 317.598 539.292 316.611 538.784 315.83C538.276 315.029 537.661 314.434 536.938 314.043C536.235 313.652 535.454 313.457 534.595 313.457C533.755 313.457 532.983 313.652 532.28 314.043C531.597 314.434 531.001 315.029 530.493 315.83C529.985 316.611 529.595 317.598 529.321 318.789C529.048 319.961 528.911 321.328 528.911 322.891ZM569.985 308.301H576.167V340.117C576.167 342.969 575.64 345.303 574.585 347.119C573.55 348.955 572.104 350.312 570.249 351.191C568.394 352.07 566.245 352.51 563.804 352.51C562.905 352.51 561.841 352.363 560.61 352.07C559.38 351.777 558.179 351.348 557.007 350.781C555.835 350.215 554.858 349.512 554.077 348.672L556.567 343.926C557.485 344.863 558.569 345.586 559.819 346.094C561.069 346.621 562.271 346.885 563.423 346.885C564.673 346.885 565.728 346.67 566.587 346.24C567.466 345.83 568.14 345.137 568.608 344.16C569.077 343.203 569.312 341.904 569.312 340.264V315.479L569.985 308.301ZM552.056 325.439V322.949C552.056 320.352 552.3 318.105 552.788 316.211C553.276 314.297 553.979 312.705 554.897 311.436C555.815 310.166 556.938 309.229 558.267 308.623C559.595 308.018 561.079 307.715 562.72 307.715C564.419 307.715 565.854 308.076 567.026 308.799C568.218 309.502 569.185 310.508 569.927 311.816C570.688 313.125 571.284 314.688 571.714 316.504C572.144 318.301 572.456 320.312 572.651 322.539V325.996C572.456 328.145 572.124 330.117 571.655 331.914C571.187 333.691 570.552 335.225 569.751 336.514C568.97 337.803 567.993 338.809 566.821 339.531C565.669 340.234 564.282 340.586 562.661 340.586C561.04 340.586 559.575 340.264 558.267 339.619C556.958 338.975 555.835 338.018 554.897 336.748C553.979 335.479 553.276 333.906 552.788 332.031C552.3 330.137 552.056 327.939 552.056 325.439ZM558.882 322.949V325.439C558.882 327.061 558.989 328.457 559.204 329.629C559.438 330.801 559.78 331.768 560.229 332.529C560.679 333.271 561.265 333.828 561.987 334.199C562.71 334.551 563.569 334.727 564.565 334.727C565.874 334.727 566.929 334.414 567.729 333.789C568.55 333.164 569.175 332.324 569.604 331.27C570.054 330.195 570.366 329.004 570.542 327.695V320.869C570.444 319.834 570.249 318.877 569.956 317.998C569.683 317.1 569.302 316.318 568.813 315.654C568.345 314.99 567.759 314.473 567.056 314.102C566.372 313.711 565.562 313.516 564.624 313.516C563.647 313.516 562.788 313.711 562.046 314.102C561.323 314.473 560.728 315.049 560.259 315.83C559.79 316.592 559.438 317.568 559.204 318.76C558.989 319.932 558.882 321.328 558.882 322.949ZM590.376 308.301V340H583.55V308.301H590.376ZM583.491 304.141L589.233 295.293H597.231L589.233 304.141H583.491ZM612.7 331.65C612.7 330.986 612.505 330.4 612.114 329.893C611.743 329.365 611.138 328.848 610.298 328.34C609.458 327.832 608.335 327.285 606.929 326.699C605.464 326.094 604.165 325.488 603.032 324.883C601.899 324.277 600.942 323.613 600.161 322.891C599.38 322.148 598.784 321.299 598.374 320.342C597.964 319.385 597.759 318.271 597.759 317.002C597.759 315.693 598.003 314.482 598.491 313.369C598.979 312.256 599.683 311.279 600.601 310.439C601.519 309.58 602.622 308.916 603.911 308.447C605.2 307.959 606.655 307.715 608.276 307.715C610.562 307.715 612.515 308.135 614.136 308.975C615.776 309.795 617.026 310.947 617.886 312.432C618.765 313.896 619.204 315.586 619.204 317.5H612.378C612.378 316.699 612.231 315.977 611.938 315.332C611.646 314.668 611.196 314.141 610.591 313.75C609.985 313.34 609.214 313.135 608.276 313.135C607.417 313.135 606.694 313.301 606.108 313.633C605.542 313.945 605.112 314.375 604.819 314.922C604.546 315.449 604.409 316.045 604.409 316.709C604.409 317.197 604.497 317.627 604.673 317.998C604.849 318.369 605.142 318.73 605.552 319.082C605.962 319.414 606.509 319.756 607.192 320.107C607.896 320.459 608.784 320.859 609.858 321.309C611.987 322.129 613.755 322.979 615.161 323.857C616.567 324.736 617.622 325.762 618.325 326.934C619.028 328.105 619.38 329.561 619.38 331.299C619.38 332.705 619.116 333.975 618.589 335.107C618.081 336.24 617.339 337.217 616.362 338.037C615.405 338.857 614.243 339.492 612.876 339.941C611.528 340.371 610.024 340.586 608.364 340.586C605.884 340.586 603.784 340.098 602.065 339.121C600.366 338.125 599.077 336.846 598.198 335.283C597.319 333.721 596.88 332.07 596.88 330.332H603.472C603.53 331.582 603.794 332.559 604.263 333.262C604.751 333.965 605.366 334.453 606.108 334.727C606.851 334.98 607.622 335.107 608.423 335.107C609.38 335.107 610.171 334.98 610.796 334.727C611.421 334.453 611.89 334.053 612.202 333.525C612.534 332.998 612.7 332.373 612.7 331.65ZM638.13 308.301V313.574H622.573V308.301H638.13ZM626.821 300.537H633.618V331.152C633.618 332.129 633.726 332.871 633.94 333.379C634.155 333.887 634.458 334.229 634.849 334.404C635.239 334.58 635.698 334.668 636.226 334.668C636.616 334.668 636.997 334.639 637.368 334.58C637.759 334.502 638.042 334.434 638.218 334.375V339.883C637.71 340.078 637.124 340.244 636.46 340.381C635.796 340.518 634.995 340.586 634.058 340.586C632.671 340.586 631.431 340.303 630.337 339.736C629.243 339.15 628.384 338.203 627.759 336.895C627.134 335.566 626.821 333.809 626.821 331.621V300.537ZM650.669 308.301V340H643.843V308.301H650.669ZM643.491 299.98C643.491 298.887 643.823 297.979 644.487 297.256C645.151 296.533 646.079 296.172 647.271 296.172C648.462 296.172 649.39 296.533 650.054 297.256C650.718 297.979 651.05 298.887 651.05 299.98C651.05 301.055 650.718 301.953 650.054 302.676C649.39 303.398 648.462 303.76 647.271 303.76C646.079 303.76 645.151 303.398 644.487 302.676C643.823 301.953 643.491 301.055 643.491 299.98ZM669.214 334.873C670.093 334.873 670.874 334.688 671.558 334.316C672.261 333.945 672.817 333.369 673.228 332.588C673.638 331.787 673.862 330.752 673.901 329.482H680.317C680.278 331.729 679.761 333.691 678.765 335.371C677.769 337.031 676.44 338.32 674.78 339.238C673.14 340.137 671.313 340.586 669.302 340.586C667.212 340.586 665.386 340.254 663.823 339.59C662.28 338.906 661.001 337.92 659.985 336.631C658.97 335.342 658.208 333.779 657.7 331.943C657.212 330.088 656.968 327.969 656.968 325.586V322.715C656.968 320.352 657.212 318.242 657.7 316.387C658.208 314.531 658.97 312.959 659.985 311.67C661.001 310.381 662.28 309.404 663.823 308.74C665.366 308.057 667.183 307.715 669.272 307.715C671.499 307.715 673.423 308.184 675.044 309.121C676.685 310.039 677.964 311.387 678.882 313.164C679.8 314.941 680.278 317.119 680.317 319.697H673.901C673.862 318.33 673.657 317.188 673.286 316.27C672.915 315.332 672.388 314.629 671.704 314.16C671.04 313.691 670.2 313.457 669.185 313.457C668.071 313.457 667.153 313.672 666.431 314.102C665.728 314.512 665.181 315.117 664.79 315.918C664.419 316.719 664.155 317.695 663.999 318.848C663.862 319.98 663.794 321.27 663.794 322.715V325.586C663.794 327.07 663.862 328.389 663.999 329.541C664.136 330.674 664.39 331.641 664.761 332.441C665.151 333.242 665.708 333.848 666.431 334.258C667.153 334.668 668.081 334.873 669.214 334.873ZM700.327 333.555V317.764C700.327 316.67 700.171 315.791 699.858 315.127C699.565 314.463 699.126 313.984 698.54 313.691C697.974 313.379 697.261 313.223 696.401 313.223C695.503 313.223 694.741 313.408 694.116 313.779C693.511 314.15 693.052 314.658 692.739 315.303C692.427 315.928 692.271 316.65 692.271 317.471H685.444C685.444 316.201 685.698 314.98 686.206 313.809C686.733 312.637 687.485 311.592 688.462 310.674C689.438 309.756 690.62 309.033 692.007 308.506C693.394 307.979 694.937 307.715 696.636 307.715C698.667 307.715 700.474 308.057 702.056 308.74C703.638 309.404 704.878 310.488 705.776 311.992C706.694 313.477 707.153 315.43 707.153 317.852V332.646C707.153 334.111 707.241 335.42 707.417 336.572C707.612 337.705 707.876 338.691 708.208 339.531V340H701.265C700.952 339.238 700.718 338.262 700.562 337.07C700.405 335.879 700.327 334.707 700.327 333.555ZM701.235 320.693L701.265 325.117H697.983C697.007 325.117 696.128 325.254 695.347 325.527C694.565 325.781 693.901 326.152 693.354 326.641C692.827 327.109 692.417 327.686 692.124 328.369C691.851 329.053 691.714 329.805 691.714 330.625C691.714 331.621 691.851 332.432 692.124 333.057C692.417 333.682 692.837 334.15 693.384 334.463C693.95 334.756 694.634 334.902 695.435 334.902C696.528 334.902 697.476 334.668 698.276 334.199C699.097 333.711 699.722 333.125 700.151 332.441C700.601 331.758 700.776 331.133 700.679 330.566L702.231 333.408C702.075 334.15 701.782 334.932 701.353 335.752C700.942 336.572 700.405 337.354 699.741 338.096C699.077 338.838 698.276 339.443 697.339 339.912C696.401 340.361 695.317 340.586 694.087 340.586C692.31 340.586 690.728 340.215 689.341 339.473C687.954 338.73 686.86 337.666 686.06 336.279C685.278 334.873 684.888 333.193 684.888 331.24C684.888 329.658 685.151 328.223 685.679 326.934C686.206 325.645 686.987 324.541 688.022 323.623C689.058 322.686 690.356 321.963 691.919 321.455C693.501 320.947 695.347 320.693 697.456 320.693H701.235Z" fill="#DA2B28"/>
</svg>
